<?xml version="1.0" standalone="no"?>
<!DOCTYPE svg PUBLIC "-//W3C//DTD SVG 20010904//EN"
 "http://www.w3.org/TR/2001/REC-SVG-20010904/DTD/svg10.dtd">
<svg version="1.0" xmlns="http://www.w3.org/2000/svg"
 width="987.000000pt" height="980.000000pt" viewBox="0 0 987.000000 980.000000"
 preserveAspectRatio="xMidYMid meet">

<g transform="translate(0.000000,980.000000) scale(0.100000,-0.100000)"
fill="#000000" stroke="none">
<path d="M4825 9786 c-101 -32 -201 -108 -249 -190 -85 -145 -71 -351 31 -477
128 -157 339 -204 518 -115 339 167 298 665 -63 776 -73 23 -176 25 -237 6z"/>
<path d="M2995 9572 c-27 -11 -117 -47 -200 -82 -1190 -493 -2311 -849 -2673
-850 -82 0 -122 -7 -122 -21 0 -19 112 -70 269 -122 198 -66 362 -104 514
-119 62 -6 116 -15 121 -19 15 -13 -31 -29 -168 -56 -75 -15 -136 -31 -136
-36 0 -5 30 -39 68 -76 77 -76 174 -129 298 -162 63 -18 109 -22 231 -23 83
-1 149 -3 147 -5 -2 -2 -36 -19 -76 -37 -40 -18 -74 -37 -76 -42 -5 -16 123
-116 193 -150 111 -56 211 -76 340 -68 60 3 135 9 165 12 51 7 54 6 41 -10 -8
-10 -50 -35 -93 -57 -43 -22 -78 -43 -78 -48 0 -13 141 -66 225 -84 163 -36
301 -31 463 16 45 13 85 20 88 16 3 -5 -31 -37 -75 -71 l-80 -63 112 -3 c187
-6 514 21 652 53 20 4 -6 -17 -75 -62 -111 -73 -180 -129 -180 -145 0 -7 83
-8 238 -5 240 5 282 10 399 54 23 8 47 13 55 10 17 -6 -56 -77 -157 -153 -41
-31 -75 -61 -75 -67 0 -22 270 20 410 64 36 11 89 33 118 49 28 15 52 26 52
22 0 -8 -70 -132 -93 -165 -10 -16 -16 -31 -13 -34 11 -11 209 43 299 82 266
114 432 296 490 536 63 257 57 523 -16 629 -20 31 -29 35 -98 46 -91 14 -149
38 -223 94 -146 110 -290 362 -377 658 -17 59 -42 126 -55 149 -49 86 -204
196 -382 273 -186 80 -370 109 -467 72z"/>
<path d="M6640 9576 c-232 -49 -508 -200 -601 -329 -16 -22 -40 -78 -54 -126
-15 -47 -44 -135 -67 -196 -137 -370 -331 -581 -552 -599 -69 -6 -86 -19 -116
-87 -35 -82 -46 -201 -32 -342 23 -229 62 -361 143 -482 83 -124 218 -229 386
-300 87 -37 267 -88 290 -83 7 2 -10 40 -43 98 -30 52 -54 98 -54 102 0 4 19
-4 43 -18 96 -55 414 -131 516 -122 l36 3 -65 49 c-109 83 -180 147 -180 163
0 10 6 12 23 7 169 -54 185 -57 430 -61 200 -4 237 -3 237 9 0 16 -24 35 -175
136 -60 41 -101 72 -90 69 48 -13 137 -27 230 -37 110 -12 553 -26 545 -18 -3
3 -40 33 -83 67 -43 34 -75 66 -72 70 3 5 38 -1 77 -14 195 -62 415 -52 621
27 42 16 77 34 77 39 0 5 -30 24 -67 43 -38 18 -79 44 -93 56 l-25 21 70 -8
c39 -4 124 -8 190 -8 96 0 135 5 195 24 92 28 188 83 255 146 l50 47 -79 39
c-43 21 -80 40 -82 42 -2 1 39 1 90 -1 192 -9 376 36 503 121 61 41 153 129
153 148 0 3 -57 17 -127 31 -210 42 -232 61 -86 72 49 4 143 18 209 32 269 53
634 187 601 220 -4 5 -51 9 -105 11 -415 13 -1450 343 -2722 868 -162 67 -194
77 -260 80 -42 3 -104 -2 -140 -9z"/>
<path d="M4622 8898 l3 -23 313 -3 312 -2 0 25 0 25 -316 0 -315 0 3 -22z"/>
<path d="M4700 8798 c0 -18 16 -593 35 -1278 19 -685 37 -1351 40 -1480 3
-129 8 -268 11 -307 l6 -73 154 0 154 0 0 47 c0 27 7 313 15 638 28 1093 45
1788 50 2060 3 149 8 305 11 348 l5 77 -240 0 -241 0 0 -32z"/>
<path d="M4085 7019 c-85 -20 -264 -84 -361 -129 -147 -69 -238 -131 -334
-229 -136 -138 -180 -241 -180 -422 0 -242 80 -513 184 -627 22 -25 95 -81
161 -125 207 -138 389 -214 629 -262 202 -40 275 -45 647 -43 338 3 359 2 459
-20 142 -31 207 -54 327 -113 119 -59 222 -147 268 -230 41 -75 42 -163 3
-231 -53 -88 -192 -183 -343 -232 -27 -9 -57 -19 -65 -22 -8 -3 59 -43 158
-94 96 -49 194 -103 218 -120 25 -16 52 -30 60 -30 25 0 126 55 191 104 162
122 233 284 233 530 0 229 -69 389 -220 509 -144 114 -312 209 -475 267 -183
65 -266 75 -785 100 -260 13 -533 35 -629 51 -71 13 -225 84 -322 150 -73 49
-141 126 -176 197 -26 52 -28 66 -27 167 0 123 18 204 66 301 79 163 210 220
361 159 79 -33 222 -48 315 -35 76 10 222 79 253 119 28 35 24 90 -9 137 -36
49 -92 98 -140 123 -96 49 -352 76 -467 50z"/>
<path d="M5497 7010 c-140 -31 -247 -103 -296 -198 -42 -82 -20 -150 64 -202
58 -36 90 -40 239 -30 113 7 160 15 237 39 160 52 243 38 328 -54 79 -86 128
-223 138 -391 17 -286 -109 -395 -622 -536 l-50 -14 60 -27 c33 -16 174 -73
313 -129 l254 -101 41 20 c23 12 85 57 138 101 347 291 418 498 309 895 -80
290 -308 478 -745 614 -112 35 -284 41 -408 13z"/>
<path d="M3726 5201 c-44 -62 -97 -167 -124 -246 -34 -100 -46 -175 -46 -285
0 -87 4 -115 23 -165 69 -176 225 -330 448 -444 221 -113 406 -143 988 -161
311 -9 366 -17 457 -67 98 -53 169 -158 189 -280 10 -58 10 -77 -4 -125 -28
-95 -128 -178 -251 -209 -25 -6 -46 -14 -46 -18 0 -12 357 -191 380 -191 50 0
141 67 193 143 97 141 140 425 88 576 -64 185 -261 369 -486 456 -192 73 -325
95 -621 99 -231 4 -327 16 -485 61 -222 63 -365 144 -424 239 -25 41 -30 60
-30 111 0 52 6 70 35 119 44 74 142 164 260 238 51 32 86 60 79 62 -8 2 -50
12 -94 21 -44 9 -167 39 -273 66 -105 27 -198 49 -206 49 -8 0 -30 -22 -50
-49z"/>
<path d="M4806 5121 c-3 -4 -1 -136 4 -292 5 -156 10 -330 10 -386 l0 -103
124 0 123 0 7 298 c3 163 7 340 7 392 l2 95 -136 2 c-75 1 -139 -2 -141 -6z"/>
<path d="M3993 3913 c-96 -137 -136 -256 -135 -398 0 -161 74 -326 206 -460
119 -121 246 -156 676 -185 482 -33 654 -74 734 -173 30 -37 31 -43 31 -130 0
-83 -3 -97 -28 -139 -35 -58 -164 -181 -246 -234 -33 -21 -61 -41 -61 -44 0
-3 78 -31 173 -64 138 -46 178 -56 193 -48 11 6 52 44 92 86 264 278 212 682
-115 898 -162 106 -298 145 -560 158 -408 20 -613 80 -709 206 -25 32 -29 46
-28 98 0 89 57 189 181 317 25 26 41 49 36 52 -9 5 -384 117 -394 117 -3 0
-24 -26 -46 -57z"/>
<path d="M4843 3638 c4 -116 7 -255 7 -310 l0 -98 93 0 94 0 6 188 c4 103 7
242 7 310 l0 122 -107 0 -106 0 6 -212z"/>
<path d="M4196 2803 c-89 -179 -109 -322 -62 -456 34 -95 76 -155 166 -240
166 -156 338 -212 723 -237 118 -7 158 -14 193 -30 147 -72 190 -282 82 -401
-33 -35 -125 -103 -175 -128 -24 -12 -43 -25 -43 -30 0 -4 41 -27 91 -50 l91
-42 54 25 c76 35 149 111 189 199 98 213 66 388 -98 543 -107 102 -140 116
-377 164 -308 62 -455 117 -551 207 -108 101 -98 252 28 425 25 35 31 49 21
53 -32 11 -263 65 -279 65 -13 0 -29 -21 -53 -67z"/>
<path d="M4873 2578 c4 -133 7 -279 7 -325 l0 -83 64 0 64 0 6 103 c3 56 8
202 10 325 l6 222 -82 0 -81 0 6 -242z"/>
<path d="M4417 1863 c-41 -93 -60 -180 -61 -278 -1 -86 1 -95 38 -170 47 -95
128 -181 208 -218 29 -13 101 -37 159 -51 146 -36 278 -89 364 -147 97 -65
117 -103 116 -226 0 -48 -5 -103 -10 -121 -23 -77 -84 -142 -192 -203 l-54
-30 48 6 c147 19 264 111 296 230 24 90 2 267 -45 357 -25 48 -121 137 -195
181 -35 21 -128 58 -207 83 -188 60 -225 85 -277 188 -36 70 -40 86 -40 150 1
82 22 133 82 191 20 19 34 37 32 39 -4 5 -222 76 -231 76 -3 0 -17 -26 -31
-57z"/>
<path d="M4899 1823 c-3 -30 3 -366 8 -440 l6 -93 37 0 37 0 6 128 c4 70 7
191 7 270 l0 142 -50 0 c-27 0 -50 -3 -51 -7z"/>
<path d="M4646 1067 c-20 -24 -48 -70 -63 -103 -26 -54 -28 -69 -28 -174 1
-135 17 -183 88 -253 46 -46 148 -102 207 -112 l35 -6 -30 22 c-99 74 -171
180 -182 267 -9 78 53 226 134 323 14 16 23 33 19 36 -8 8 -116 43 -133 43 -6
0 -28 -19 -47 -43z"/>
<path d="M4923 793 c17 -671 21 -793 27 -793 8 0 17 253 26 700 3 168 7 317 9
333 3 25 1 27 -32 27 l-36 0 6 -267z"/>
</g>
</svg>
